# xmcd CD database file
#
# Track frame offsets:
#	183
#	19845
#	43270
#	61385
#	85118
#	101808
#	128583
#	152868
#	172633
#	190083
#	211933
#	231533
#
# Disc length: 3481 seconds
#
# Revision: 3
# Processed by: cddbd v1.4PL0 Copyright (c) Steve Scherf et al.
# Submitted via: Feurio! 1.63 - http://www.feurio.com
#
DISCID=9b0d970c
DTITLE=Tony Joe White - Closer To The Truth
DYEAR=1991
DGENRE=blues
TTITLE0=Tunica Motel
TTITLE1=Ain't Going Down This Time
TTITLE2=Steamy Windows
TTITLE3=(You're Gonna Look) Good In Blues
TTITLE4=Love M.D.
TTITLE5=The Other Side
TTITLE6=Bi-Yo Rhythm
TTITLE7=Cool Town Woman
TTITLE8=Bare Necessities
TTITLE9=Undercover Agent For the Blues
TTITLE10=Main Squeeze
TTITLE11=Closer To the Truth
EXTD=
EXTT0=
EXTT1=
EXTT2=
EXTT3=
EXTT4=
EXTT5=
EXTT6=
EXTT7=
EXTT8=
EXTT9=
EXTT10=
EXTT11=
PLAYORDER=
